<svg class="main-svg" xmlns="http://www.w3.org/2000/svg" xmlns:xlink="http://www.w3.org/1999/xlink" width="700" height="500" style="" viewBox="0 0 700 500"><rect x="0" y="0" width="700" height="500" style="fill: rgb(255, 255, 255); fill-opacity: 1;"/><defs id="defs-467779"><g class="clips"><clipPath id="clip467779xyplot" class="plotclip"><rect width="465" height="320"/></clipPath><clipPath class="axesclip" id="clip467779x"><rect x="80" y="0" width="465" height="500"/></clipPath><clipPath class="axesclip" id="clip467779y"><rect x="0" y="100" width="700" height="320"/></clipPath><clipPath class="axesclip" id="clip467779xy"><rect x="80" y="100" width="465" height="320"/></clipPath></g><g class="gradients"/><g class="patterns"/></defs><g class="bglayer"><rect class="bg" x="80" y="100" width="465" height="320" style="fill: rgb(229, 236, 246); fill-opacity: 1; stroke-width: 0;"/></g><g class="layer-below"><g class="imagelayer"/><g class="shapelayer"/></g><g class="cartesianlayer"><g class="subplot xy"><g class="layer-subplot"><g class="shapelayer"/><g class="imagelayer"/></g><g class="minor-gridlayer"><g class="x"/><g class="y"/></g><g class="gridlayer"><g class="x"><path class="xgrid crisp" transform="translate(173.94,0)" d="M0,100v320" style="stroke: rgb(255, 255, 255); stroke-opacity: 1; stroke-width: 1px;"/><path class="xgrid crisp" transform="translate(267.88,0)" d="M0,100v320" style="stroke: rgb(255, 255, 255); stroke-opacity: 1; stroke-width: 1px;"/><path class="xgrid crisp" transform="translate(361.82,0)" d="M0,100v320" style="stroke: rgb(255, 255, 255); stroke-opacity: 1; stroke-width: 1px;"/><path class="xgrid crisp" transform="translate(455.76,0)" d="M0,100v320" style="stroke: rgb(255, 255, 255); stroke-opacity: 1; stroke-width: 1px;"/></g><g class="y"><path class="ygrid crisp" transform="translate(0,346.4)" d="M80,0h465" style="stroke: rgb(255, 255, 255); stroke-opacity: 1; stroke-width: 1px;"/><path class="ygrid crisp" transform="translate(0,287.62)" d="M80,0h465" style="stroke: rgb(255, 255, 255); stroke-opacity: 1; stroke-width: 1px;"/><path class="ygrid crisp" transform="translate(0,228.85)" d="M80,0h465" style="stroke: rgb(255, 255, 255); stroke-opacity: 1; stroke-width: 1px;"/><path class="ygrid crisp" transform="translate(0,170.07)" d="M80,0h465" style="stroke: rgb(255, 255, 255); stroke-opacity: 1; stroke-width: 1px;"/><path class="ygrid crisp" transform="translate(0,111.3)" d="M80,0h465" style="stroke: rgb(255, 255, 255); stroke-opacity: 1; stroke-width: 1px;"/></g></g><g class="zerolinelayer"><path class="xzl zl crisp" transform="translate(80,0)" d="M0,100v320" style="stroke: rgb(255, 255, 255); stroke-opacity: 1; stroke-width: 2px;"/><path class="yzl zl crisp" transform="translate(0,405.18)" d="M80,0h465" style="stroke: rgb(255, 255, 255); stroke-opacity: 1; stroke-width: 2px;"/></g><path class="xlines-below"/><path class="ylines-below"/><g class="overlines-below"/><g class="xaxislayer-below"/><g class="yaxislayer-below"/><g class="overaxes-below"/><g class="plot" transform="translate(80,100)" clip-path="url(#clip467779xyplot)"><g class="scatterlayer mlayer"><g class="trace scatter trace924acf" style="stroke-miterlimit: 2; opacity: 1;"><g class="fills"/><g class="errorbars"/><g class="lines"><path class="js-line" d="M0,300.47L4.7,295.77L9.39,300.47L18.79,291.07L23.48,298.12L32.88,288.72L37.58,295.77L46.97,286.37L51.67,293.42L65.76,279.31L70.45,286.37L75.15,281.67L79.85,288.72L89.24,279.31L93.94,286.37L108.03,272.26L112.73,279.31L117.42,274.61L122.12,281.67L136.21,267.56L140.91,274.61L145.61,269.91L150.3,276.96L159.7,267.56L164.39,274.61L178.48,260.51L183.18,267.56L187.88,262.86L192.58,269.91L206.67,255.8L211.36,262.86L220.76,253.45L225.45,260.51L230.15,255.8L234.85,262.86L248.94,248.75L253.64,255.8L258.33,251.1L263.03,258.16L281.82,239.35L286.52,246.4L291.21,241.7L295.91,248.75L300.61,244.05L305.3,251.1L319.39,237L324.09,244.05L333.48,234.64L338.18,241.7L352.27,227.59L356.97,234.64L361.67,229.94L366.36,237L371.06,232.29L375.76,239.35L394.55,220.54L399.24,227.59L403.94,222.89L408.64,229.94L418.03,220.54L422.73,227.59L432.12,218.19L436.82,225.24L446.21,215.84L450.91,222.89L465,208.78" style="vector-effect: non-scaling-stroke; fill: none; stroke: rgb(99, 110, 250); stroke-opacity: 1; stroke-width: 2px; opacity: 1;"/></g><g class="points"/><g class="text"/></g><g class="trace scatter trace41918c" style="stroke-miterlimit: 2; opacity: 1;"><g class="fills"/><g class="errorbars"/><g class="lines"><path class="js-line" d="M0,301.65L14.09,291.07L18.79,299.3L56.36,271.09L61.06,279.31L84.55,261.68L89.24,269.91L126.82,241.7L131.52,249.93L169.09,221.71L173.79,229.94L197.27,212.31L201.97,220.54L239.55,192.33L244.24,200.56L272.42,179.4L277.12,187.62L310,162.94L314.7,171.17L342.88,150.01L347.58,158.24L380.45,133.55L385.15,141.78L413.33,120.62L418.03,128.85L455.61,100.64L460.3,108.87L465,105.34" style="vector-effect: non-scaling-stroke; fill: none; stroke: rgb(239, 85, 59); stroke-opacity: 1; stroke-width: 2px; opacity: 1;"/></g><g class="points"/><g class="text"/></g><g class="trace scatter trace31b9b9" style="stroke-miterlimit: 2; opacity: 1;"><g class="fills"/><g class="errorbars"/><g class="lines"><path class="js-line" d="M0,300.47L4.7,300.47L9.39,295.77L14.09,300.47L18.79,295.77L23.48,291.07L28.18,298.12L32.88,300.47L37.58,295.77L42.27,291.07L46.97,298.12L51.67,293.42L56.36,300.47L61.06,295.77L65.76,300.47L70.45,295.77L75.15,300.47L79.85,295.77L84.55,300.47L93.94,291.07L98.64,298.12L103.33,293.42L108.03,300.47L112.73,295.77L117.42,300.47L122.12,295.77L126.82,300.47L131.52,295.77L136.21,300.47L140.91,295.77L145.61,300.47L155,291.07L159.7,298.12L164.39,293.42L169.09,300.47L173.79,295.77L178.48,300.47L183.18,295.77L187.88,300.47L192.58,295.77L197.27,300.47L201.97,295.77L206.67,300.47L216.06,291.07L220.76,298.12L225.45,293.42L230.15,300.47L234.85,295.77L239.55,300.47L244.24,295.77L248.94,300.47L253.64,295.77L258.33,300.47L263.03,295.77L267.73,300.47L277.12,291.07L281.82,298.12L286.52,293.42L291.21,300.47L295.91,295.77L300.61,300.47L305.3,295.77L310,300.47L314.7,295.77L319.39,300.47L324.09,295.77L328.79,300.47L338.18,291.07L342.88,298.12L347.58,293.42L352.27,300.47L356.97,295.77L361.67,300.47L366.36,295.77L371.06,300.47L375.76,295.77L380.45,300.47L389.85,291.07L394.55,298.12L399.24,293.42L403.94,300.47L408.64,295.77L413.33,300.47L422.73,291.07L427.42,298.12L432.12,300.47L436.82,295.77L441.52,300.47L446.21,295.77L450.91,291.07L455.61,298.12L460.3,293.42L465,300.47" style="vector-effect: non-scaling-stroke; fill: none; stroke: rgb(0, 204, 150); stroke-opacity: 1; stroke-width: 2px; opacity: 1;"/></g><g class="points"/><g class="text"/></g><g class="trace scatter tracef3734c" style="stroke-miterlimit: 2; opacity: 1;"><g class="fills"/><g class="errorbars"/><g class="lines"><path class="js-line" d="M0,304L37.58,294.6L42.27,304L98.64,289.89L103.33,300.47L150.3,288.72L155,299.3L211.36,285.19L216.06,295.77L267.73,282.84L272.42,293.42L328.79,279.31L333.48,289.89L385.15,276.96L389.85,287.54L441.52,274.61L446.21,285.19L465,280.49" style="vector-effect: non-scaling-stroke; fill: none; stroke: rgb(171, 99, 250); stroke-opacity: 1; stroke-width: 2px; opacity: 1;"/></g><g class="points"/><g class="text"/></g><g class="trace scatter trace9ac3bc" style="stroke-miterlimit: 2; opacity: 1;"><g class="fills"/><g class="errorbars"/><g class="lines"><path class="js-line" d="M0,299.3L4.7,293.42L9.39,299.3L18.79,287.54L23.48,293.42L32.88,281.67L37.58,287.54L46.97,275.79L51.67,281.67L65.76,264.03L70.45,269.91L75.15,264.03L79.85,269.91L89.24,258.16L93.94,264.03L108.03,246.4L112.73,252.28L117.42,246.4L122.12,252.28L136.21,234.64L140.91,240.52L145.61,234.64L150.3,240.52L159.7,228.77L164.39,234.64L178.48,217.01L183.18,222.89L187.88,217.01L192.58,222.89L206.67,205.26L211.36,211.13L220.76,199.38L225.45,205.26L230.15,199.38L234.85,205.26L248.94,187.62L253.64,193.5L258.33,187.62L263.03,193.5L281.82,169.99L286.52,175.87L291.21,169.99L295.91,175.87L300.61,169.99L305.3,175.87L319.39,158.24L324.09,164.11L333.48,152.36L338.18,158.24L352.27,140.6L356.97,146.48L361.67,140.6L366.36,146.48L371.06,140.6L375.76,146.48L394.55,122.97L399.24,128.85L403.94,122.97L408.64,128.85L418.03,117.09L422.73,122.97L432.12,111.22L436.82,117.09L446.21,105.34L450.91,111.22L465,93.58" style="vector-effect: non-scaling-stroke; fill: none; stroke: rgb(255, 161, 90); stroke-opacity: 1; stroke-width: 2px; opacity: 1;"/></g><g class="points"/><g class="text"/></g><g class="trace scatter traceda0395" style="stroke-miterlimit: 2; opacity: 1;"><g class="fills"/><g class="errorbars"/><g class="lines"><path class="js-line" d="M0,302.82L14.09,295.77L18.79,302.82L56.36,284.02L61.06,293.42L84.55,281.67L89.24,291.07L126.82,272.26L131.52,281.67L169.09,262.86L173.79,272.26L197.27,260.51L201.97,269.91L239.55,251.1L244.24,260.51L272.42,246.4L277.12,255.8L310,239.35L314.7,248.75L342.88,234.64L347.58,244.05L380.45,227.59L385.15,237L413.33,222.89L418.03,232.29L455.61,213.49L460.3,222.89L465,220.54" style="vector-effect: non-scaling-stroke; fill: none; stroke: rgb(25, 211, 243); stroke-opacity: 1; stroke-width: 2px; opacity: 1;"/></g><g class="points"/><g class="text"/></g><g class="trace scatter trace894207" style="stroke-miterlimit: 2; opacity: 1;"><g class="fills"/><g class="errorbars"/><g class="lines"><path class="js-line" d="M0,296.95L4.7,296.95L9.39,288.72L14.09,292.24L18.79,284.02L23.48,275.79L28.18,279.31L32.88,282.84L37.58,274.61L42.27,266.38L46.97,269.91L51.67,261.68L56.36,265.21L61.06,256.98L65.76,260.51L70.45,252.28L75.15,255.8L79.85,247.58L84.55,251.1L93.94,234.64L98.64,238.17L103.33,229.94L108.03,233.47L112.73,225.24L117.42,228.77L122.12,220.54L126.82,224.07L131.52,215.84L136.21,219.36L140.91,211.13L145.61,214.66L155,198.2L159.7,201.73L164.39,193.5L169.09,197.03L173.79,188.8L178.48,192.33L183.18,184.1L187.88,187.62L192.58,179.4L197.27,182.92L201.97,174.69L206.67,178.22L216.06,161.76L220.76,165.29L225.45,157.06L230.15,160.59L234.85,152.36L239.55,155.89L244.24,147.66L248.94,151.18L253.64,142.96L258.33,146.48L263.03,138.25L267.73,141.78L277.12,125.32L281.82,128.85L286.52,120.62L291.21,124.15L295.91,115.92L300.61,119.44L305.3,111.22L310,114.74L314.7,106.51L319.39,110.04L324.09,101.81L328.79,105.34L338.18,88.88L342.88,92.41L347.58,84.18L352.27,87.71L356.97,79.48L361.67,83L366.36,74.78L371.06,78.3L375.76,70.07L380.45,73.6L389.85,57.14L394.55,60.67L399.24,52.44L403.94,55.97L408.64,47.74L413.33,51.27L422.73,34.81L427.42,38.33L432.12,41.86L436.82,33.63L441.52,37.16L446.21,28.93L450.91,20.7L455.61,24.23L460.3,16L465,19.53" style="vector-effect: non-scaling-stroke; fill: none; stroke: rgb(255, 102, 146); stroke-opacity: 1; stroke-width: 2px; opacity: 1;"/></g><g class="points"/><g class="text"/></g><g class="trace scatter traceea1165" style="stroke-miterlimit: 2; opacity: 1;"><g class="fills"/><g class="errorbars"/><g class="lines"><path class="js-line" d="M0,301.65L37.58,273.44L42.27,281.67L98.64,239.35L103.33,247.58L150.3,212.31L155,220.54L211.36,178.22L216.06,186.45L267.73,147.66L272.42,155.89L328.79,113.57L333.48,121.8L385.15,83L389.85,91.23L441.52,52.44L446.21,60.67L465,46.56" style="vector-effect: non-scaling-stroke; fill: none; stroke: rgb(182, 232, 128); stroke-opacity: 1; stroke-width: 2px; opacity: 1;"/></g><g class="points"/><g class="text"/></g></g></g><g class="overplot"/><path class="xlines-above crisp" d="M0,0" style="fill: none;"/><path class="ylines-above crisp" d="M0,0" style="fill: none;"/><g class="overlines-above"/><g class="xaxislayer-above"><g class="xtick"><text text-anchor="middle" x="0" y="433" transform="translate(80,0)" style="font-family: 'Open Sans', verdana, arial, sans-serif; font-size: 12px; fill: rgb(42, 63, 95); fill-opacity: 1; white-space: pre; opacity: 1;">0</text></g><g class="xtick"><text text-anchor="middle" x="0" y="433" style="font-family: 'Open Sans', verdana, arial, sans-serif; font-size: 12px; fill: rgb(42, 63, 95); fill-opacity: 1; white-space: pre; opacity: 1;" transform="translate(173.94,0)">20</text></g><g class="xtick"><text text-anchor="middle" x="0" y="433" style="font-family: 'Open Sans', verdana, arial, sans-serif; font-size: 12px; fill: rgb(42, 63, 95); fill-opacity: 1; white-space: pre; opacity: 1;" transform="translate(267.88,0)">40</text></g><g class="xtick"><text text-anchor="middle" x="0" y="433" style="font-family: 'Open Sans', verdana, arial, sans-serif; font-size: 12px; fill: rgb(42, 63, 95); fill-opacity: 1; white-space: pre; opacity: 1;" transform="translate(361.82,0)">60</text></g><g class="xtick"><text text-anchor="middle" x="0" y="433" style="font-family: 'Open Sans', verdana, arial, sans-serif; font-size: 12px; fill: rgb(42, 63, 95); fill-opacity: 1; white-space: pre; opacity: 1;" transform="translate(455.76,0)">80</text></g></g><g class="yaxislayer-above"><g class="ytick"><text text-anchor="end" x="79" y="4.199999999999999" transform="translate(0,405.18)" style="font-family: 'Open Sans', verdana, arial, sans-serif; font-size: 12px; fill: rgb(42, 63, 95); fill-opacity: 1; white-space: pre; opacity: 1;">0</text></g><g class="ytick"><text text-anchor="end" x="79" y="4.199999999999999" style="font-family: 'Open Sans', verdana, arial, sans-serif; font-size: 12px; fill: rgb(42, 63, 95); fill-opacity: 1; white-space: pre; opacity: 1;" transform="translate(0,346.4)">50</text></g><g class="ytick"><text text-anchor="end" x="79" y="4.199999999999999" style="font-family: 'Open Sans', verdana, arial, sans-serif; font-size: 12px; fill: rgb(42, 63, 95); fill-opacity: 1; white-space: pre; opacity: 1;" transform="translate(0,287.62)">100</text></g><g class="ytick"><text text-anchor="end" x="79" y="4.199999999999999" style="font-family: 'Open Sans', verdana, arial, sans-serif; font-size: 12px; fill: rgb(42, 63, 95); fill-opacity: 1; white-space: pre; opacity: 1;" transform="translate(0,228.85)">150</text></g><g class="ytick"><text text-anchor="end" x="79" y="4.199999999999999" style="font-family: 'Open Sans', verdana, arial, sans-serif; font-size: 12px; fill: rgb(42, 63, 95); fill-opacity: 1; white-space: pre; opacity: 1;" transform="translate(0,170.07)">200</text></g><g class="ytick"><text text-anchor="end" x="79" y="4.199999999999999" style="font-family: 'Open Sans', verdana, arial, sans-serif; font-size: 12px; fill: rgb(42, 63, 95); fill-opacity: 1; white-space: pre; opacity: 1;" transform="translate(0,111.3)">250</text></g></g><g class="overaxes-above"/></g></g><g class="polarlayer"/><g class="smithlayer"/><g class="ternarylayer"/><g class="geolayer"/><g class="funnelarealayer"/><g class="pielayer"/><g class="iciclelayer"/><g class="treemaplayer"/><g class="sunburstlayer"/><g class="glimages"/><defs id="topdefs-467779"><g class="clips"/><clipPath id="legend467779"><rect width="134" height="181" x="0" y="0"/></clipPath></defs><g class="layer-above"><g class="imagelayer"/><g class="shapelayer"/></g><g class="infolayer"><g class="legend" pointer-events="all" transform="translate(554.3,100)"><rect class="bg" shape-rendering="crispEdges" width="134" height="181" x="0" y="0" style="stroke: rgb(68, 68, 68); stroke-opacity: 1; fill: rgb(255, 255, 255); fill-opacity: 1; stroke-width: 0px;"/><g class="scrollbox" transform="" clip-path="url(#legend467779)"><text class="legendtitletext" text-anchor="start" x="2" y="18.2" style="font-family: 'Open Sans', verdana, arial, sans-serif; font-size: 14px; fill: rgb(42, 63, 95); fill-opacity: 1; white-space: pre;">variable</text><g class="groups" transform=""><g class="traces" transform="translate(0,32.7)" style="opacity: 1;"><text class="legendtext" text-anchor="start" x="40" y="4.680000000000001" style="font-family: 'Open Sans', verdana, arial, sans-serif; font-size: 12px; fill: rgb(42, 63, 95); fill-opacity: 1; white-space: pre;">North Straight</text><g class="layers" style="opacity: 1;"><g class="legendfill"/><g class="legendlines"><path class="js-line" d="M5,0h30" style="fill: none; stroke: rgb(99, 110, 250); stroke-opacity: 1; stroke-width: 2px;"/></g><g class="legendsymbols"><g class="legendpoints"/></g></g><rect class="legendtoggle" x="0" y="-9.5" width="128.046875" height="19" style="fill: rgb(0, 0, 0); fill-opacity: 0;"/></g></g><g class="groups" transform=""><g class="traces" transform="translate(0,51.7)" style="opacity: 1;"><text class="legendtext" text-anchor="start" x="40" y="4.680000000000001" style="font-family: 'Open Sans', verdana, arial, sans-serif; font-size: 12px; fill: rgb(42, 63, 95); fill-opacity: 1; white-space: pre;">North Left</text><g class="layers" style="opacity: 1;"><g class="legendfill"/><g class="legendlines"><path class="js-line" d="M5,0h30" style="fill: none; stroke: rgb(239, 85, 59); stroke-opacity: 1; stroke-width: 2px;"/></g><g class="legendsymbols"><g class="legendpoints"/></g></g><rect class="legendtoggle" x="0" y="-9.5" width="128.046875" height="19" style="fill: rgb(0, 0, 0); fill-opacity: 0;"/></g></g><g class="groups" transform=""><g class="traces" transform="translate(0,70.7)" style="opacity: 1;"><text class="legendtext" text-anchor="start" x="40" y="4.680000000000001" style="font-family: 'Open Sans', verdana, arial, sans-serif; font-size: 12px; fill: rgb(42, 63, 95); fill-opacity: 1; white-space: pre;">East Straight</text><g class="layers" style="opacity: 1;"><g class="legendfill"/><g class="legendlines"><path class="js-line" d="M5,0h30" style="fill: none; stroke: rgb(0, 204, 150); stroke-opacity: 1; stroke-width: 2px;"/></g><g class="legendsymbols"><g class="legendpoints"/></g></g><rect class="legendtoggle" x="0" y="-9.5" width="128.046875" height="19" style="fill: rgb(0, 0, 0); fill-opacity: 0;"/></g></g><g class="groups" transform=""><g class="traces" transform="translate(0,89.7)" style="opacity: 1;"><text class="legendtext" text-anchor="start" x="40" y="4.680000000000001" style="font-family: 'Open Sans', verdana, arial, sans-serif; font-size: 12px; fill: rgb(42, 63, 95); fill-opacity: 1; white-space: pre;">East Left</text><g class="layers" style="opacity: 1;"><g class="legendfill"/><g class="legendlines"><path class="js-line" d="M5,0h30" style="fill: none; stroke: rgb(171, 99, 250); stroke-opacity: 1; stroke-width: 2px;"/></g><g class="legendsymbols"><g class="legendpoints"/></g></g><rect class="legendtoggle" x="0" y="-9.5" width="128.046875" height="19" style="fill: rgb(0, 0, 0); fill-opacity: 0;"/></g></g><g class="groups" transform=""><g class="traces" transform="translate(0,108.7)" style="opacity: 1;"><text class="legendtext" text-anchor="start" x="40" y="4.680000000000001" style="font-family: 'Open Sans', verdana, arial, sans-serif; font-size: 12px; fill: rgb(42, 63, 95); fill-opacity: 1; white-space: pre;">South Straight</text><g class="layers" style="opacity: 1;"><g class="legendfill"/><g class="legendlines"><path class="js-line" d="M5,0h30" style="fill: none; stroke: rgb(255, 161, 90); stroke-opacity: 1; stroke-width: 2px;"/></g><g class="legendsymbols"><g class="legendpoints"/></g></g><rect class="legendtoggle" x="0" y="-9.5" width="128.046875" height="19" style="fill: rgb(0, 0, 0); fill-opacity: 0;"/></g></g><g class="groups" transform=""><g class="traces" transform="translate(0,127.7)" style="opacity: 1;"><text class="legendtext" text-anchor="start" x="40" y="4.680000000000001" style="font-family: 'Open Sans', verdana, arial, sans-serif; font-size: 12px; fill: rgb(42, 63, 95); fill-opacity: 1; white-space: pre;">South Left</text><g class="layers" style="opacity: 1;"><g class="legendfill"/><g class="legendlines"><path class="js-line" d="M5,0h30" style="fill: none; stroke: rgb(25, 211, 243); stroke-opacity: 1; stroke-width: 2px;"/></g><g class="legendsymbols"><g class="legendpoints"/></g></g><rect class="legendtoggle" x="0" y="-9.5" width="128.046875" height="19" style="fill: rgb(0, 0, 0); fill-opacity: 0;"/></g></g><g class="groups" transform=""><g class="traces" transform="translate(0,146.7)" style="opacity: 1;"><text class="legendtext" text-anchor="start" x="40" y="4.680000000000001" style="font-family: 'Open Sans', verdana, arial, sans-serif; font-size: 12px; fill: rgb(42, 63, 95); fill-opacity: 1; white-space: pre;">West Straight</text><g class="layers" style="opacity: 1;"><g class="legendfill"/><g class="legendlines"><path class="js-line" d="M5,0h30" style="fill: none; stroke: rgb(255, 102, 146); stroke-opacity: 1; stroke-width: 2px;"/></g><g class="legendsymbols"><g class="legendpoints"/></g></g><rect class="legendtoggle" x="0" y="-9.5" width="128.046875" height="19" style="fill: rgb(0, 0, 0); fill-opacity: 0;"/></g></g><g class="groups" transform=""><g class="traces" transform="translate(0,165.7)" style="opacity: 1;"><text class="legendtext" text-anchor="start" x="40" y="4.680000000000001" style="font-family: 'Open Sans', verdana, arial, sans-serif; font-size: 12px; fill: rgb(42, 63, 95); fill-opacity: 1; white-space: pre;">West Left</text><g class="layers" style="opacity: 1;"><g class="legendfill"/><g class="legendlines"><path class="js-line" d="M5,0h30" style="fill: none; stroke: rgb(182, 232, 128); stroke-opacity: 1; stroke-width: 2px;"/></g><g class="legendsymbols"><g class="legendpoints"/></g></g><rect class="legendtoggle" x="0" y="-9.5" width="128.046875" height="19" style="fill: rgb(0, 0, 0); fill-opacity: 0;"/></g></g></g><rect class="scrollbar" rx="20" ry="3" width="0" height="0" x="0" y="0" style="fill: rgb(128, 139, 164); fill-opacity: 1;"/></g><g class="g-gtitle"><text class="gtitle" x="35" y="50" text-anchor="start" dy="0em" style="font-family: 'Open Sans', verdana, arial, sans-serif; font-size: 17px; fill: rgb(42, 63, 95); opacity: 1; font-weight: normal; white-space: pre;">Waiting cars in each lane for each cycle</text></g><g class="g-xtitle"><text class="xtitle" x="312.5" y="460.8" text-anchor="middle" style="font-family: 'Open Sans', verdana, arial, sans-serif; font-size: 14px; fill: rgb(42, 63, 95); opacity: 1; font-weight: normal; white-space: pre;">Cycles</text></g><g class="g-ytitle"><text class="ytitle" transform="rotate(-90,31.309375000000003,260)" x="31.309375000000003" y="260" text-anchor="middle" style="font-family: 'Open Sans', verdana, arial, sans-serif; font-size: 14px; fill: rgb(42, 63, 95); opacity: 1; font-weight: normal; white-space: pre;">Waiting cars</text></g></g></svg>